<?xml version="1.0" encoding="UTF-8" standalone="no"?>
<!-- Created with Inkscape (http://www.inkscape.org/) -->

<svg
   xmlns:dc="http://purl.org/dc/elements/1.1/"
   xmlns:cc="http://creativecommons.org/ns#"
   xmlns:rdf="http://www.w3.org/1999/02/22-rdf-syntax-ns#"
   xmlns:svg="http://www.w3.org/2000/svg"
   xmlns="http://www.w3.org/2000/svg"
   version="1.1"
   width="800"
   height="800"
   id="svg3099">
  <defs
     id="defs3101">
    <clipPath
       id="clipPath3081">
      <path
         d="m 1096.0155,615.99939 a 477.29709,477.29709 0 1 1 -954.59414,0 477.29709,477.29709 0 1 1 954.59414,0 z"
         transform="translate(-106.71844,-103.99939)"
         id="path3083"
         style="fill:#333333;stroke:none;display:inline" />
    </clipPath>
  </defs>
  <metadata
     id="metadata3104">
    <rdf:RDF>
      <cc:Work
         rdf:about="">
        <dc:format>image/svg+xml</dc:format>
        <dc:type
           rdf:resource="http://purl.org/dc/dcmitype/StillImage" />
        <dc:title></dc:title>
      </cc:Work>
    </rdf:RDF>
  </metadata>
  <g
     transform="translate(428.72566,170.34074)"
     id="layer1">
    <path
       d="m 1096.0155,615.99939 a 477.29709,477.29709 0 1 1 -954.59414,0 477.29709,477.29709 0 1 1 954.59414,0 z"
       transform="matrix(0.8370049,0,0,0.8370049,-546.59603,-285.93525)"
       id="path3013"
       style="fill:#333333;stroke:none;display:inline" />
    <path
       d="m 434.30263,429.81154 17.79466,45.78709 40.76563,-5.49111 1.14806,-48.52401 z m 109.45136,-14.36653 23.66464,45.09418 34.0396,-4.8422 1.71879,-48.53406 z M 435.51777,623.46967 465.25,610.5 471,592 442.37652,572.28033 z m -64.32033,-272.30241 59.11764,-8.375 -22.37931,-78.83642 4.61091,-26.10355 -19.5,-18.75 -39,3.5 -7.5,22 16.78249,25.85355 z M 457.01409,339.83579 516.75,332.5 l -7.55761,-80.91853 9.35355,-23.64644 -12.43934,-20 -39.5,0.5 -10.25736,22.96447 10.34315,23.38908 z m -104.96481,22.87748 -32.6822,-14.14355 -50.06589,-6.37076 -10.72485,14.5778 32.72898,44.1724 42.90527,27.30093 z m 192.84452,-30.16015 18.97055,-47.75053 36.40129,-23.28427 8.48528,4.24264 6.42462,52.10839 -32.09798,50.74622 z M 537.3125,339.0625 361.78125,364.09375 342.5,443 l 36.5625,75.34375 105.15625,70.34375 124.0625,33.53125 58.9375,-31.15625 -9.34375,-50.21875 -63.0625,-74.09375 -34.09375,4.625 -30.40625,-54.40625 -22.25,3.6875 -2.90625,58.3125 -62.3125,8.71875 -28.125,-65.96875 162.4375,-22.5 -0.375,-20.75 -39.46875,-39.40625 z m 83.5,204.21875 12.59375,8.34375 2.5625,29.75 -12.875,-7.71875 -2.28125,-30.375 z m -40.90625,19.15625 32.125,15.875 5.3125,14.625 -33.78125,-13 -3.65625,-17.5 z m -227.56342,-79.09191 -3.875,17.1875 -0.375,63.75 51.4062,19.75 25.59375,37.25 7.28679,-54.04168 -59.13049,-38.67707 z m -22.08475,3.41747 10.83363,5.8514 6.59404,-20.27171 -8.89582,-16.41053 z M 326,497 l 12.5,7 -0.5,58.25 -19.25,34.5 L 299,577 z M 432.67678,635.26777 434,699 l 11.5,1.5 17.14645,-78.37868 z M 328,602.25 l 14.5,70.25 81,26.75 -1,-64.5 -31,-40.5 -49,-20.5 z m 8.5,81.25 -16,42.5 7,55 89,31.5 L 440,715 z M 292,585 319.12132,609.16117 330.24264,673.24264 312.82843,719.3033 246,697 z m -54,122 69.5,20.5 7.5,57 -43,50 -82,-33.5 z m 42.73223,138.79289 5.5,101 L 363,971.5 415,828 326.5,792 z M 147,869 l 40,-57 79,36 6,97 z"
       transform="matrix(0.83805246,0,0,0.83805246,-457.80852,-199.42359)"
       clip-path="url(#clipPath3081)"
       id="path3058"
       style="fill:#f2f2f2;fill-opacity:1;stroke:none;display:inline" />
  </g>
</svg>
