<svg viewBox="0 0 800 800" class="logo" version="1.1" xmlns="http://www.w3.org/2000/svg">
 <path d="m799.5 400a399.5 399.5 0 1 1 -799 0 399.5 399.5 0 1 1 799 0z" class="logo-background"/>
 <path d="m395.06 145.18l-33.1 0.42-8.6 19.24 8.67 19.6-8.11 71.28 50.06-6.15-6.33-67.81 7.84-19.82-10.43-16.76zm-94.75 9.36l-32.68 2.93-6.29 18.44 14.07 21.66 6.59 67.64 49.54-7.01-18.75-66.07 3.86-21.88-16.34-15.71zm173.66 35.54l-30.51 19.52-15.89 40.01 32 30.23 26.9-42.53-5.39-43.67-7.11-3.56zm-52.76 64.99l-147.1 20.98-16.16 66.12 30.64 63.15 88.13 58.95 103.97 28.1 49.39-26.11-7.83-42.09-52.85-62.09-28.57 3.88-25.48-45.6-18.65 3.09-2.44 48.87-52.22 7.3-23.57-55.28 136.13-18.86-0.31-17.39-33.08-33.02zm-224.6 2.63l-8.99 12.21 27.43 37.02 35.95 22.88 14.95-54.92-27.39-11.85-41.95-5.34zm279.8 54.44l-49.8 6.94 19.83 37.79 28.53-4.06 1.44-40.67zm-91.49 12.09l-50.04 6.89 14.92 38.37 34.16-4.6 0.96-40.66zm-130.08 28.78l-7.15 25.84 9.08 4.9 5.53-16.98-7.46-13.76zm11.36 22.98l-3.25 14.4-0.31 53.43 43.08 16.55 21.45 31.22 6.1-45.3-49.55-32.41-17.52-37.89zm-22.08 11.44l-22.63 67.04 16.56 16.56 16.13-28.92 0.42-48.82-10.48-5.86zm247.07 38.78l10.55 7 2.15 24.93-10.79-6.47-1.91-25.46zm-34.28 16.06l26.92 13.3 4.45 12.26-28.31-10.89-3.06-14.67zm-115.26 8.25l-5.75 42.9 24.92-10.87 4.82-15.51-23.99-16.52zm-83.7 1.23l-12.15 23.88 12.15 58.88 67.88 22.42-0.84-54.06-25.97-33.94-41.07-17.18zm-42.32 9.43l-38.55 93.86 56 18.69 14.6-38.6-9.32-53.7-22.73-20.25zm143.01 31.11l-25.12 11.01 1.11 53.41 9.64 1.26 14.37-65.68zm-105.72 51.44l-13.41 35.61 5.87 46.1 74.59 26.39 19.69-81.71-86.74-26.39zm-82.55 19.69l-40.22 78.78 68.72 28.07 36.03-41.9-6.28-47.77-58.25-17.18zm74.17 71.23l-38.35 45.09 3.88 71.33a399.5 399.5 0 0 0 66.93 28.86l41.71-115.11-74.17-30.17zm-116.91 16.77l-16.78 23.91a399.5 399.5 0 0 0 86.89 69.25l-3.9-62.99-66.21-30.17z" class="logo-foreground"/>
</svg>
